<svg width="180" height="160" viewBox="0 0 180 160" fill="none" xmlns="http://www.w3.org/2000/svg">
<g clip-path="url(#clip0_515_23)">
<path d="M43.7429 102.733C52.2312 122.615 71.984 132.725 96.1431 129.359C118.935 126.174 134.583 110.496 138.322 89.6218C124.742 92.8428 108.7 95.7973 91.825 98.1539C74.5281 100.576 57.9169 102.14 43.7429 102.733Z" fill="#1D1D24"/>
<path d="M137.136 64.1783C130.561 39.7744 109.185 26.8944 82.3737 30.6463C56.9464 34.1951 40.3464 53.2674 39.346 77.796C18.649 82.8612 5.46232 88.245 6.01683 92.1701C6.57135 96.0952 20.5823 97.6414 41.6784 96.8776C58.1836 96.1634 74.6424 94.6277 90.9931 92.2763C109.051 89.7539 125.636 86.6075 139.088 83.3344C159.916 78.2506 173.208 72.8408 172.652 68.8989C172.101 65.0054 158.152 63.4369 137.138 64.1951" fill="#1D1D24"/>
</g>
<defs>
<clipPath id="clip0_515_23">
<rect width="166.667" height="100" fill="white" transform="translate(6 30)"/>
</clipPath>
</defs>
</svg>
