<svg width="200" height="200" viewBox="0 0 200 200" fill="none" xmlns="http://www.w3.org/2000/svg">
<g clip-path="url(#clip0_10_26)">
<path d="M56.2332 121.824C64.3819 140.911 83.3446 150.616 106.537 147.385C128.417 144.327 143.44 129.276 147.029 109.237C133.992 112.329 118.592 115.165 102.392 117.428C85.7869 119.753 69.8401 121.255 56.2332 121.824Z" fill="#1D1D24"/>
<path d="M145.891 84.8114C139.578 61.3836 119.058 49.0188 93.3188 52.6206C68.9085 56.0275 52.9726 74.3368 52.0122 97.8844C32.143 102.747 19.4838 107.915 20.0162 111.683C20.5485 115.452 33.999 116.936 54.2513 116.203C70.0962 115.517 85.8967 114.043 101.593 111.785C118.929 109.364 134.85 106.343 147.765 103.201C167.76 98.3207 180.52 93.1273 179.986 89.3431C179.457 85.6054 166.066 84.0996 145.893 84.8275" fill="#1D1D24"/>
</g>
<defs>
<clipPath id="clip0_10_26">
<rect width="160" height="96" fill="white" transform="translate(20 52)"/>
</clipPath>
</defs>
</svg>
