<svg width="180" height="160" viewBox="0 0 180 160" fill="none" xmlns="http://www.w3.org/2000/svg">
<g clip-path="url(#clip0_516_33)">
<path d="M43.9095 102.733C52.3978 122.615 72.1507 132.725 96.3097 129.359C119.101 126.174 134.749 110.496 138.489 89.6218C124.909 92.8428 108.867 95.7973 91.9916 98.1539C74.6947 100.576 58.0835 102.14 43.9095 102.733Z" fill="#FAFAFC"/>
<path d="M137.303 64.1783C130.727 39.7745 109.352 26.8944 82.5403 30.6463C57.113 34.1951 40.5131 53.2674 39.5127 77.7961C18.8156 82.8613 5.62894 88.245 6.18346 92.1701C6.73798 96.0953 20.749 97.6415 41.845 96.8777C58.3502 96.1634 74.809 94.6277 91.1597 92.2763C109.217 89.754 125.802 86.6075 139.255 83.3344C160.083 78.2506 173.375 72.8408 172.818 68.8989C172.267 65.0055 158.318 63.4369 137.305 64.1951" fill="#FAFAFC"/>
</g>
<defs>
<clipPath id="clip0_516_33">
<rect width="166.667" height="100" fill="white" transform="translate(6.16663 30)"/>
</clipPath>
</defs>
</svg>
